# xmcd
# 
# Track frame offsets:
#     150
#     15635
#     29203
#     44268
#     59130
#     73793
#     88643
#     102420
#     117528
#     131253
#     146605
#     161055
#     175998
#     190653
#     204228
#     219040
#     232368
#     246155
#     259338
#     272508
# 
# Disc length: 3826
# 
# Revision: 2
# Processed by: cddbd v1.5.2PL0 Copyright (c) Steve Scherf et al.
# Submitted via: BonkEnc v1.0
# 
DISCID=310ef014
DTITLE=Louis Armstrong - St. Louis Blues
DYEAR=0
DGENRE=
TTITLE0=Mahogany Hall Stomp
TTITLE1=St. Louis Blues
TTITLE2=I'm Confessin' That I Love You
TTITLE3=Dinah
TTITLE4=Chinatown, My Chinatown
TTITLE5=Georgia On My Mind
TTITLE6=Lazy River
TTITLE7=Rockin' Chair
TTITLE8=Wild Man Blues
TTITLE9=You're Lucky To Me
TTITLE10=You Rascal You
TTITLE11=St. James Infirmary
TTITLE12=West End Blues
TTITLE13=Red Nose
TTITLE14=Shoe Shine Boy
TTITLE15=Save It Pretty Mama
TTITLE16=Hear Me Talkin' to Ya
TTITLE17=I Double Dare You
TTITLE18=Struttin' With Some Barbeque
TTITLE19=I Hope Gabriel Likes My Music
EXTD=
EXTT0=
EXTT1=
EXTT2=
EXTT3=
EXTT4=
EXTT5=
EXTT6=
EXTT7=
EXTT8=
EXTT9=
EXTT10=
EXTT11=
EXTT12=
EXTT13=
EXTT14=
EXTT15=
EXTT16=
EXTT17=
EXTT18=
EXTT19=
PLAYORDER=
